<svg xmlns="http://www.w3.org/2000/svg" version="1.1" xmlns:xlink="http://www.w3.org/1999/xlink" xmlns:svgjs="http://svgjs.dev/svgjs" width="1500" height="1500" viewBox="0 0 1500 1500"><rect width="1500" height="1500" fill="#ffffff"></rect><g transform="matrix(0.6666666666666666,0,0,0.6666666666666666,249.39393939393938,592.5965158954227)"><svg viewBox="0 0 396 124" data-background-color="#000000" preserveAspectRatio="xMidYMid meet" height="469" width="1500" xmlns="http://www.w3.org/2000/svg" xmlns:xlink="http://www.w3.org/1999/xlink"><g id="tight-bounds" transform="matrix(1,0,0,1,0.2400000000000091,0.4244094743099822)"><svg viewBox="0 0 395.52 123.15118105138005" height="123.15118105138005" width="395.52"><g><svg viewBox="0 0 566.8339641856949 176.49239519999998" height="123.15118105138005" width="395.52"><g transform="matrix(1,0,0,1,171.313964185695,54.53871188571428)"><svg viewBox="0 0 395.5199999999999 67.41497142857142" height="67.41497142857142" width="395.5199999999999"><g id="textblocktransform"><svg viewBox="0 0 395.5199999999999 67.41497142857142" height="67.41497142857142" width="395.5199999999999" id="textblock"><g><svg viewBox="0 0 395.5199999999999 67.41497142857142" height="67.41497142857142" width="395.5199999999999"><g transform="matrix(1,0,0,1,0,0)"><svg width="395.5199999999999" viewBox="2.27 -36.23 273.41 46.61" height="67.41497142857142" data-palette-color="url(#63f8fe60-d8f5-41f4-b18b-5ea695f7d723)"></svg></g></svg></g></svg></g></svg></g><g><svg viewBox="0 0 155.39890739072356 176.49239519999998" height="176.49239519999998" width="155.39890739072356"><g><svg xmlns="http://www.w3.org/2000/svg" xmlns:xlink="http://www.w3.org/1999/xlink" version="1.1" x="0" y="0" viewBox="4.6299986036262855 2.0003847563233697 38.741001428029655 43.99961524367663" enable-background="new 0 0 48 48" xml:space="preserve" height="176.49239519999998" width="155.39890739072356" class="icon-icon-0" data-fill-palette-color="accent" id="icon-0"></svg></g></svg></g></svg></g><defs></defs><mask id="1e7ae1bf-54a4-4f41-91ca-d42a4af9bd9e"><g id="SvgjsG1363"><svg viewBox="0 0 395.52 123.15118105138005" height="123.15118105138005" width="395.52"><g><svg viewBox="0 0 566.8339641856949 176.49239519999998" height="123.15118105138005" width="395.52"><g transform="matrix(1,0,0,1,171.313964185695,54.53871188571428)"><svg viewBox="0 0 395.5199999999999 67.41497142857142" height="67.41497142857142" width="395.5199999999999"><g id="SvgjsG1362"><svg viewBox="0 0 395.5199999999999 67.41497142857142" height="67.41497142857142" width="395.5199999999999" id="SvgjsSvg1361"><g><svg viewBox="0 0 395.5199999999999 67.41497142857142" height="67.41497142857142" width="395.5199999999999"><g transform="matrix(1,0,0,1,0,0)"><svg width="395.5199999999999" viewBox="2.27 -36.23 273.41 46.61" height="67.41497142857142" data-palette-color="url(#63f8fe60-d8f5-41f4-b18b-5ea695f7d723)"><path d="M31.05-9.5L31.05-9.5Q31.05-4.74 27.33-2.12 23.61 0.49 16.85 0.49L16.85 0.49Q4.27 0.49 2.27-8.25L2.27-8.25 6.79-9.16Q7.57-6.05 10.11-4.6 12.65-3.15 17.02-3.15L17.02-3.15Q21.53-3.15 23.99-4.7 26.44-6.25 26.44-9.25L26.44-9.25Q26.44-10.94 25.67-11.99 24.9-13.04 23.51-13.72L23.51-13.72Q22.12-14.4 20.19-14.87 18.26-15.33 15.92-15.87L15.92-15.87Q13.21-16.48 11.39-17.07 9.57-17.65 8.4-18.3 7.23-18.95 6.4-19.68L6.4-19.68Q5.18-20.8 4.53-22.29 3.88-23.78 3.88-25.71L3.88-25.71Q3.88-30.13 7.26-32.52 10.64-34.91 16.94-34.91L16.94-34.91Q22.8-34.91 25.9-33.12 29-31.32 30.25-27L30.25-27 25.66-26.2Q24.9-28.93 22.78-30.16 20.65-31.4 16.89-31.4L16.89-31.4Q12.77-31.4 10.6-30.03 8.42-28.66 8.42-25.95L8.42-25.95Q8.42-24.37 9.27-23.33 10.11-22.29 11.69-21.58L11.69-21.58Q13.18-20.87 18.02-19.8L18.02-19.8Q20-19.34 21.92-18.84 23.85-18.33 25.56-17.58L25.56-17.58Q26.56-17.16 27.48-16.56 28.39-15.97 29.08-15.19L29.08-15.19Q30-14.16 30.53-12.77 31.05-11.38 31.05-9.5ZM46.87-3.44L46.87-0.2Q44.72 0.39 42.43 0.39L42.43 0.39Q39.79 0.39 38.47-1.11 37.16-2.61 37.16-5.59L37.16-5.59 37.16-23.22 34.1-23.22 34.1-26.42 37.33-26.42 38.62-32.32 41.55-32.32 41.55-26.42 46.43-26.42 46.43-23.22 41.55-23.22 41.55-6.54Q41.55-4.64 42.17-3.87 42.8-3.1 44.33-3.1L44.33-3.1Q45.16-3.1 46.87-3.44L46.87-3.44ZM72.94-13.23L72.94-13.23Q72.94-6.3 69.89-2.91 66.84 0.49 61.03 0.49L61.03 0.49Q55.24 0.49 52.29-3.04 49.34-6.57 49.34-13.23L49.34-13.23Q49.34-20.07 52.3-23.49 55.27-26.9 61.18-26.9L61.18-26.9Q67.23-26.9 70.09-23.57 72.94-20.24 72.94-13.23ZM68.33-13.23L68.33-13.23Q68.33-18.7 66.71-21.18 65.08-23.66 61.25-23.66L61.25-23.66Q57.39-23.66 55.67-21.13 53.95-18.6 53.95-13.23L53.95-13.23Q53.95-8.01 55.65-5.38 57.34-2.76 60.98-2.76L60.98-2.76Q64.94-2.76 66.63-5.3 68.33-7.84 68.33-13.23ZM82.9-13.77L82.9-13.77 82.9 0 78.51 0 78.51-20.26Q78.51-21.66 78.47-23.19 78.43-24.73 78.36-26.42L78.36-26.42 82.51-26.42Q82.56-25.29 82.6-24.39 82.63-23.49 82.66-22.81 82.68-22.14 82.7-21.69 82.71-21.24 82.71-21.02L82.71-21.02 82.81-21.02Q83.54-23.41 84.42-24.73L84.42-24.73Q85.27-25.95 86.37-26.43 87.47-26.9 89.08-26.9L89.08-26.9Q89.98-26.9 90.86-26.66L90.86-26.66 90.86-22.63Q90.03-22.88 88.52-22.88L88.52-22.88Q85.78-22.88 84.34-20.52 82.9-18.16 82.9-13.77ZM96.35 10.38L96.35 10.38Q94.59 10.38 93.32 10.11L93.32 10.11 93.32 6.81Q94.25 6.96 95.38 6.96L95.38 6.96Q97.43 6.96 99.17 5.43 100.92 3.91 102.28-0.12L102.28-0.12 91.81-26.42 96.5-26.42 102.07-11.82Q102.68-10.25 103.37-8.28 104.07-6.3 104.46-4.79L104.46-4.79Q105.07-6.52 105.69-8.23 106.31-9.94 106.9-11.65L106.9-11.65 111.95-26.42 116.59-26.42 106.44 0Q105.61 2.1 104.85 3.67 104.09 5.25 103.38 6.27L103.38 6.27Q101.97 8.35 100.25 9.36 98.53 10.38 96.35 10.38ZM147.74-9.5L147.74-9.5Q147.74-4.74 144.02-2.12 140.3 0.49 133.53 0.49L133.53 0.49Q120.96 0.49 118.96-8.25L118.96-8.25 123.47-9.16Q124.26-6.05 126.79-4.6 129.33-3.15 133.7-3.15L133.7-3.15Q138.22-3.15 140.67-4.7 143.13-6.25 143.13-9.25L143.13-9.25Q143.13-10.94 142.36-11.99 141.59-13.04 140.2-13.72L140.2-13.72Q138.81-14.4 136.88-14.87 134.95-15.33 132.6-15.87L132.6-15.87Q129.89-16.48 128.08-17.07 126.26-17.65 125.09-18.3 123.91-18.95 123.08-19.68L123.08-19.68Q121.86-20.8 121.22-22.29 120.57-23.78 120.57-25.71L120.57-25.71Q120.57-30.13 123.95-32.52 127.33-34.91 133.63-34.91L133.63-34.91Q139.49-34.91 142.59-33.12 145.69-31.32 146.94-27L146.94-27 142.35-26.2Q141.59-28.93 139.47-30.16 137.34-31.4 133.58-31.4L133.58-31.4Q129.46-31.4 127.28-30.03 125.11-28.66 125.11-25.95L125.11-25.95Q125.11-24.37 125.95-23.33 126.79-22.29 128.38-21.58L128.38-21.58Q129.87-20.87 134.7-19.8L134.7-19.8Q136.68-19.34 138.61-18.84 140.54-18.33 142.25-17.58L142.25-17.58Q143.25-17.16 144.16-16.56 145.08-15.97 145.76-15.19L145.76-15.19Q146.69-14.16 147.22-12.77 147.74-11.38 147.74-9.5ZM175.74-13.33L175.74-13.33Q175.74-6.42 173.31-2.97 170.88 0.49 166.03 0.49L166.03 0.49Q159.92 0.49 157.82-4.1L157.82-4.1 157.7-4.1Q157.8-3.93 157.8 0.05L157.8 0.05 157.8 10.38 153.4 10.38 153.4-21.02Q153.4-23.05 153.37-24.4 153.33-25.76 153.26-26.42L153.26-26.42 157.5-26.42Q157.53-26.32 157.59-25.46 157.65-24.61 157.7-23.62 157.75-22.63 157.75-22.17L157.75-22.17 157.85-22.17Q159.02-24.61 160.95-25.74 162.88-26.88 166.03-26.88L166.03-26.88Q170.91-26.88 173.32-23.61 175.74-20.34 175.74-13.33ZM171.13-13.23L171.13-13.23Q171.13-18.75 169.64-21.12 168.15-23.49 164.9-23.49L164.9-23.49Q161.29-23.49 159.54-20.98 157.8-18.48 157.8-12.89L157.8-12.89Q157.8-7.69 159.46-5.22 161.12-2.76 164.85-2.76L164.85-2.76Q168.12-2.76 169.63-5.16 171.13-7.57 171.13-13.23ZM185.5-21.9L185.58-21.9Q186.99-24.49 188.98-25.7 190.97-26.9 194.03-26.9L194.03-26.9Q198.32-26.9 200.36-24.67 202.4-22.44 202.4-17.6L202.4-17.6 202.4 0 197.98 0 197.98-16.75Q197.98-20.34 196.72-21.92 195.47-23.51 192.54-23.51L192.54-23.51Q189.44-23.51 187.57-21.36 185.7-19.21 185.7-15.58L185.7-15.58 185.7 0 181.31 0 181.31-36.23 185.7-36.23 185.7-26.81Q185.7-25.83 185.65-24.74 185.6-23.66 185.57-22.86 185.53-22.07 185.5-21.9L185.5-21.9ZM231.23-12.28L212.38-12.28Q212.38-7.74 214.26-5.27 216.14-2.81 219.76-2.81L219.76-2.81Q222.61-2.81 224.33-3.96 226.05-5.1 226.66-6.86L226.66-6.86 230.52-5.76Q228.15 0.49 219.76 0.49L219.76 0.49Q213.9 0.49 210.83-3 207.77-6.49 207.77-13.38L207.77-13.38Q207.77-19.92 210.83-23.41 213.9-26.9 219.58-26.9L219.58-26.9Q225.42-26.9 228.32-23.39 231.23-19.87 231.23-12.87L231.23-12.87 231.23-12.28ZM212.43-15.65L226.69-15.65Q226.32-19.82 224.56-21.74 222.81-23.66 219.51-23.66L219.51-23.66Q216.31-23.66 214.45-21.52 212.58-19.38 212.43-15.65L212.43-15.65ZM241.31-13.77L241.31-13.77 241.31 0 236.92 0 236.92-20.26Q236.92-21.66 236.88-23.19 236.84-24.73 236.77-26.42L236.77-26.42 240.92-26.42Q240.97-25.29 241.01-24.39 241.04-23.49 241.07-22.81 241.09-22.14 241.1-21.69 241.12-21.24 241.12-21.02L241.12-21.02 241.21-21.02Q241.95-23.41 242.82-24.73L242.82-24.73Q243.68-25.95 244.78-26.43 245.88-26.9 247.49-26.9L247.49-26.9Q248.39-26.9 249.27-26.66L249.27-26.66 249.27-22.63Q248.44-22.88 246.93-22.88L246.93-22.88Q244.19-22.88 242.75-20.52 241.31-18.16 241.31-13.77ZM275.68-12.28L256.84-12.28Q256.84-7.74 258.72-5.27 260.6-2.81 264.21-2.81L264.21-2.81Q267.06-2.81 268.79-3.96 270.51-5.1 271.12-6.86L271.12-6.86 274.98-5.76Q272.61 0.49 264.21 0.49L264.21 0.49Q258.35 0.49 255.29-3 252.22-6.49 252.22-13.38L252.22-13.38Q252.22-19.92 255.29-23.41 258.35-26.9 264.04-26.9L264.04-26.9Q269.87-26.9 272.78-23.39 275.68-19.87 275.68-12.87L275.68-12.87 275.68-12.28ZM256.88-15.65L271.14-15.65Q270.78-19.82 269.02-21.74 267.26-23.66 263.96-23.66L263.96-23.66Q260.77-23.66 258.9-21.52 257.03-19.38 256.88-15.65L256.88-15.65Z" opacity="1" transform="matrix(1,0,0,1,0,0)" fill="white" class="wordmark-text-0" id="SvgjsPath1360"></path></svg></g></svg></g></svg></g></svg></g><g><svg viewBox="0 0 155.39890739072356 176.49239519999998" height="176.49239519999998" width="155.39890739072356"><g><svg xmlns="http://www.w3.org/2000/svg" xmlns:xlink="http://www.w3.org/1999/xlink" version="1.1" x="0" y="0" viewBox="4.6299986036262855 2.0003847563233697 38.741001428029655 43.99961524367663" enable-background="new 0 0 48 48" xml:space="preserve" height="176.49239519999998" width="155.39890739072356" class="icon-icon-0" data-fill-palette-color="accent" id="SvgjsSvg1359"><path d="M38.047 8.691V2.501A0.496 0.496 0 0 0 37.459 2.009 19.7 19.7 0 0 0 24 11.297C21.06 6.397 16.2 3.03 10.54 2.009A0.5 0.5 0 0 0 9.95 2.5V8.705A16 16 0 0 0 4.845 11.032 0.5 0.5 0 0 0 4.63 11.443V44.638A0.5 0.5 0 0 0 5.415 45.05C10.979 41.199 18.489 41.541 23.679 45.882L23.696 45.892C23.705 45.9 23.713 45.909 23.722 45.914 23.736 45.923 23.753 45.925 23.768 45.933A0.4 0.4 0 0 0 23.88 45.979C23.891 45.982 23.901 45.99 23.912 45.992L24 46 24.074 45.995C24.104 45.991 24.133 45.974 24.162 45.965 24.183 45.958 24.203 45.954 24.222 45.944 24.229 45.941 24.237 45.941 24.243 45.937A0.5 0.5 0 0 0 24.325 45.88C29.514 41.542 37.022 41.199 42.585 45.048A0.5 0.5 0 0 0 43.371 44.638V11.443A0.5 0.5 0 0 0 43.156 11.032 16 16 0 0 0 38.047 8.691M10.95 3.108A18.71 18.71 0 0 1 23.499 12.431V43.701A19.7 19.7 0 0 0 10.95 35.283zM5.629 43.719V11.707A15 15 0 0 1 9.95 9.742V35.696A0.5 0.5 0 0 0 10.361 36.188 18.7 18.7 0 0 1 22.228 43.634C17.156 40.622 10.736 40.609 5.629 43.719M24.5 12.432A18.7 18.7 0 0 1 37.047 3.109V35.283A19.7 19.7 0 0 0 24.5 43.7zM42.369 43.719A16.07 16.07 0 0 0 34.006 41.381C31.141 41.381 28.28 42.141 25.756 43.643A18.7 18.7 0 0 1 37.637 36.189 0.5 0.5 0 0 0 38.047 35.697V9.726A15.1 15.1 0 0 1 42.369 11.707z" fill="black"></path><path d="M13.642 13.76A18.7 18.7 0 0 1 20.279 18.023 0.5 0.5 0 1 0 20.984 17.316 19.7 19.7 0 0 0 13.993 12.826 0.498 0.498 0 1 0 13.642 13.76" fill="black"></path><path d="M13.642 20.495A18.7 18.7 0 0 1 20.279 24.757 0.496 0.496 0 0 0 20.986 24.756 0.5 0.5 0 0 0 20.984 24.049 19.7 19.7 0 0 0 13.993 19.559 0.5 0.5 0 1 0 13.642 20.495" fill="black"></path><path d="M20.983 30.783A19.7 19.7 0 0 0 13.992 26.293 0.5 0.5 0 1 0 13.64 27.23 18.7 18.7 0 0 1 20.277 31.493 0.496 0.496 0 0 0 20.984 31.492 0.5 0.5 0 0 0 20.983 30.783" fill="black"></path><path d="M27.366 18.168A0.5 0.5 0 0 0 27.719 18.022 18.7 18.7 0 0 1 34.356 13.759C34.616 13.662 34.747 13.373 34.649 13.115S34.26 12.726 34.004 12.823A19.7 19.7 0 0 0 27.014 17.313 0.5 0.5 0 0 0 27.366 18.168" fill="black"></path><path d="M27.366 24.903A0.5 0.5 0 0 0 27.719 24.757 18.7 18.7 0 0 1 34.356 20.495 0.5 0.5 0 1 0 34.004 19.558 19.7 19.7 0 0 0 27.014 24.048 0.5 0.5 0 0 0 27.366 24.903" fill="black"></path><path d="M27.366 31.637A0.5 0.5 0 0 0 27.719 31.491 18.8 18.8 0 0 1 30.811 29.008 0.5 0.5 0 1 0 30.272 28.167 20 20 0 0 0 27.014 30.783 0.501 0.501 0 0 0 27.366 31.637" fill="black"></path></svg></g></svg></g></svg></g><defs><mask></mask></defs></svg><rect width="395.52" height="123.15118105138005" fill="black" stroke="none" visibility="hidden"></rect></g></mask><linearGradient x1="0.054" x2="0.941" y1="0.5" y2="0.5" id="63f8fe60-d8f5-41f4-b18b-5ea695f7d723"><stop stop-color="#864d25" offset="0"></stop><stop stop-color="#f1c4b3" offset="0.498"></stop><stop stop-color="#864d25" offset="1"></stop></linearGradient><rect width="395.52" height="123.15118105138005" fill="#000000" mask="url(#1e7ae1bf-54a4-4f41-91ca-d42a4af9bd9e)" data-fill-palette-color="primary"></rect><mask id="3fd9452b-f971-4f53-b559-4447493139a2"><g id="SvgjsG1382"><svg viewBox="0 0 395.52 123.15118105138005" height="123.15118105138005" width="395.52"><g><svg viewBox="0 0 566.8339641856949 176.49239519999998" height="123.15118105138005" width="395.52"><g transform="matrix(1,0,0,1,171.313964185695,54.53871188571428)"><svg viewBox="0 0 395.5199999999999 67.41497142857142" height="67.41497142857142" width="395.5199999999999"><g id="SvgjsG1381"><svg viewBox="0 0 395.5199999999999 67.41497142857142" height="67.41497142857142" width="395.5199999999999" id="SvgjsSvg1380"><g><svg viewBox="0 0 395.5199999999999 67.41497142857142" height="67.41497142857142" width="395.5199999999999"><g transform="matrix(1,0,0,1,0,0)"><svg width="395.5199999999999" viewBox="2.27 -36.23 273.41 46.61" height="67.41497142857142" data-palette-color="url(#63f8fe60-d8f5-41f4-b18b-5ea695f7d723)"></svg></g></svg></g></svg></g></svg></g><g><svg viewBox="0 0 155.39890739072356 176.49239519999998" height="176.49239519999998" width="155.39890739072356"><g><svg xmlns="http://www.w3.org/2000/svg" xmlns:xlink="http://www.w3.org/1999/xlink" version="1.1" x="0" y="0" viewBox="4.6299986036262855 2.0003847563233697 38.741001428029655 43.99961524367663" enable-background="new 0 0 48 48" xml:space="preserve" height="176.49239519999998" width="155.39890739072356" class="icon-icon-0" data-fill-palette-color="accent" id="SvgjsSvg1379"><path d="M38.047 8.691V2.501A0.496 0.496 0 0 0 37.459 2.009 19.7 19.7 0 0 0 24 11.297C21.06 6.397 16.2 3.03 10.54 2.009A0.5 0.5 0 0 0 9.95 2.5V8.705A16 16 0 0 0 4.845 11.032 0.5 0.5 0 0 0 4.63 11.443V44.638A0.5 0.5 0 0 0 5.415 45.05C10.979 41.199 18.489 41.541 23.679 45.882L23.696 45.892C23.705 45.9 23.713 45.909 23.722 45.914 23.736 45.923 23.753 45.925 23.768 45.933A0.4 0.4 0 0 0 23.88 45.979C23.891 45.982 23.901 45.99 23.912 45.992L24 46 24.074 45.995C24.104 45.991 24.133 45.974 24.162 45.965 24.183 45.958 24.203 45.954 24.222 45.944 24.229 45.941 24.237 45.941 24.243 45.937A0.5 0.5 0 0 0 24.325 45.88C29.514 41.542 37.022 41.199 42.585 45.048A0.5 0.5 0 0 0 43.371 44.638V11.443A0.5 0.5 0 0 0 43.156 11.032 16 16 0 0 0 38.047 8.691M10.95 3.108A18.71 18.71 0 0 1 23.499 12.431V43.701A19.7 19.7 0 0 0 10.95 35.283zM5.629 43.719V11.707A15 15 0 0 1 9.95 9.742V35.696A0.5 0.5 0 0 0 10.361 36.188 18.7 18.7 0 0 1 22.228 43.634C17.156 40.622 10.736 40.609 5.629 43.719M24.5 12.432A18.7 18.7 0 0 1 37.047 3.109V35.283A19.7 19.7 0 0 0 24.5 43.7zM42.369 43.719A16.07 16.07 0 0 0 34.006 41.381C31.141 41.381 28.28 42.141 25.756 43.643A18.7 18.7 0 0 1 37.637 36.189 0.5 0.5 0 0 0 38.047 35.697V9.726A15.1 15.1 0 0 1 42.369 11.707z" fill="white"></path><path d="M13.642 13.76A18.7 18.7 0 0 1 20.279 18.023 0.5 0.5 0 1 0 20.984 17.316 19.7 19.7 0 0 0 13.993 12.826 0.498 0.498 0 1 0 13.642 13.76" fill="white"></path><path d="M13.642 20.495A18.7 18.7 0 0 1 20.279 24.757 0.496 0.496 0 0 0 20.986 24.756 0.5 0.5 0 0 0 20.984 24.049 19.7 19.7 0 0 0 13.993 19.559 0.5 0.5 0 1 0 13.642 20.495" fill="white"></path><path d="M20.983 30.783A19.7 19.7 0 0 0 13.992 26.293 0.5 0.5 0 1 0 13.64 27.23 18.7 18.7 0 0 1 20.277 31.493 0.496 0.496 0 0 0 20.984 31.492 0.5 0.5 0 0 0 20.983 30.783" fill="white"></path><path d="M27.366 18.168A0.5 0.5 0 0 0 27.719 18.022 18.7 18.7 0 0 1 34.356 13.759C34.616 13.662 34.747 13.373 34.649 13.115S34.26 12.726 34.004 12.823A19.7 19.7 0 0 0 27.014 17.313 0.5 0.5 0 0 0 27.366 18.168" fill="white"></path><path d="M27.366 24.903A0.5 0.5 0 0 0 27.719 24.757 18.7 18.7 0 0 1 34.356 20.495 0.5 0.5 0 1 0 34.004 19.558 19.7 19.7 0 0 0 27.014 24.048 0.5 0.5 0 0 0 27.366 24.903" fill="white"></path><path d="M27.366 31.637A0.5 0.5 0 0 0 27.719 31.491 18.8 18.8 0 0 1 30.811 29.008 0.5 0.5 0 1 0 30.272 28.167 20 20 0 0 0 27.014 30.783 0.501 0.501 0 0 0 27.366 31.637" fill="white"></path></svg></g></svg></g></svg></g><defs><mask></mask></defs><mask><g id="SvgjsG1378"><svg viewBox="0 0 395.52 123.15118105138005" height="123.15118105138005" width="395.52"><g><svg viewBox="0 0 566.8339641856949 176.49239519999998" height="123.15118105138005" width="395.52"><g transform="matrix(1,0,0,1,171.313964185695,54.53871188571428)"><svg viewBox="0 0 395.5199999999999 67.41497142857142" height="67.41497142857142" width="395.5199999999999"><g id="SvgjsG1377"><svg viewBox="0 0 395.5199999999999 67.41497142857142" height="67.41497142857142" width="395.5199999999999" id="SvgjsSvg1376"><g><svg viewBox="0 0 395.5199999999999 67.41497142857142" height="67.41497142857142" width="395.5199999999999"><g transform="matrix(1,0,0,1,0,0)"><svg width="395.5199999999999" viewBox="2.27 -36.23 273.41 46.61" height="67.41497142857142" data-palette-color="url(#63f8fe60-d8f5-41f4-b18b-5ea695f7d723)"><path d="M31.05-9.5L31.05-9.5Q31.05-4.74 27.33-2.12 23.61 0.49 16.85 0.49L16.85 0.49Q4.27 0.49 2.27-8.25L2.27-8.25 6.79-9.16Q7.57-6.05 10.11-4.6 12.65-3.15 17.02-3.15L17.02-3.15Q21.53-3.15 23.99-4.7 26.44-6.25 26.44-9.25L26.44-9.25Q26.44-10.94 25.67-11.99 24.9-13.04 23.51-13.72L23.51-13.72Q22.12-14.4 20.19-14.87 18.26-15.33 15.92-15.87L15.92-15.87Q13.21-16.48 11.39-17.07 9.57-17.65 8.4-18.3 7.23-18.95 6.4-19.68L6.4-19.68Q5.18-20.8 4.53-22.29 3.88-23.78 3.88-25.71L3.88-25.71Q3.88-30.13 7.26-32.52 10.64-34.91 16.94-34.91L16.94-34.91Q22.8-34.91 25.9-33.12 29-31.32 30.25-27L30.25-27 25.66-26.2Q24.9-28.93 22.78-30.16 20.65-31.4 16.89-31.4L16.89-31.4Q12.77-31.4 10.6-30.03 8.42-28.66 8.42-25.95L8.42-25.95Q8.42-24.37 9.27-23.33 10.11-22.29 11.69-21.58L11.69-21.58Q13.18-20.87 18.02-19.8L18.02-19.8Q20-19.34 21.92-18.84 23.85-18.33 25.56-17.58L25.56-17.58Q26.56-17.16 27.48-16.56 28.39-15.97 29.08-15.19L29.08-15.19Q30-14.16 30.53-12.77 31.05-11.38 31.05-9.5ZM46.87-3.44L46.87-0.2Q44.72 0.39 42.43 0.39L42.43 0.39Q39.79 0.39 38.47-1.11 37.16-2.61 37.16-5.59L37.16-5.59 37.16-23.22 34.1-23.22 34.1-26.42 37.33-26.42 38.62-32.32 41.55-32.32 41.55-26.42 46.43-26.42 46.43-23.22 41.55-23.22 41.55-6.54Q41.55-4.64 42.17-3.87 42.8-3.1 44.33-3.1L44.33-3.1Q45.16-3.1 46.87-3.44L46.87-3.44ZM72.94-13.23L72.94-13.23Q72.94-6.3 69.89-2.91 66.84 0.49 61.03 0.49L61.03 0.49Q55.24 0.49 52.29-3.04 49.34-6.57 49.34-13.23L49.34-13.23Q49.34-20.07 52.3-23.49 55.27-26.9 61.18-26.9L61.18-26.9Q67.23-26.9 70.09-23.57 72.94-20.24 72.94-13.23ZM68.33-13.23L68.33-13.23Q68.33-18.7 66.71-21.18 65.08-23.66 61.25-23.66L61.25-23.66Q57.39-23.66 55.67-21.13 53.95-18.6 53.95-13.23L53.95-13.23Q53.95-8.01 55.65-5.38 57.34-2.76 60.98-2.76L60.98-2.76Q64.94-2.76 66.63-5.3 68.33-7.84 68.33-13.23ZM82.9-13.77L82.9-13.77 82.9 0 78.51 0 78.51-20.26Q78.51-21.66 78.47-23.19 78.43-24.73 78.36-26.42L78.36-26.42 82.51-26.42Q82.56-25.29 82.6-24.39 82.63-23.49 82.66-22.81 82.68-22.14 82.7-21.69 82.71-21.24 82.71-21.02L82.71-21.02 82.81-21.02Q83.54-23.41 84.42-24.73L84.42-24.73Q85.27-25.95 86.37-26.43 87.47-26.9 89.08-26.9L89.08-26.9Q89.98-26.9 90.86-26.66L90.86-26.66 90.86-22.63Q90.03-22.88 88.52-22.88L88.52-22.88Q85.78-22.88 84.34-20.52 82.9-18.16 82.9-13.77ZM96.35 10.38L96.35 10.38Q94.59 10.38 93.32 10.11L93.32 10.11 93.32 6.81Q94.25 6.96 95.38 6.96L95.38 6.96Q97.43 6.96 99.17 5.43 100.92 3.91 102.28-0.12L102.28-0.12 91.81-26.42 96.5-26.42 102.07-11.82Q102.68-10.25 103.37-8.28 104.07-6.3 104.46-4.79L104.46-4.79Q105.07-6.52 105.69-8.23 106.31-9.94 106.9-11.65L106.9-11.65 111.95-26.42 116.59-26.42 106.44 0Q105.61 2.1 104.85 3.67 104.09 5.25 103.38 6.27L103.38 6.27Q101.97 8.35 100.25 9.36 98.53 10.38 96.35 10.38ZM147.74-9.5L147.74-9.5Q147.74-4.74 144.02-2.12 140.3 0.49 133.53 0.49L133.53 0.49Q120.96 0.49 118.96-8.25L118.96-8.25 123.47-9.16Q124.26-6.05 126.79-4.6 129.33-3.15 133.7-3.15L133.7-3.15Q138.22-3.15 140.67-4.7 143.13-6.25 143.13-9.25L143.13-9.25Q143.13-10.94 142.36-11.99 141.59-13.04 140.2-13.72L140.2-13.72Q138.81-14.4 136.88-14.87 134.95-15.33 132.6-15.87L132.6-15.87Q129.89-16.48 128.08-17.07 126.26-17.65 125.09-18.3 123.91-18.95 123.08-19.68L123.08-19.68Q121.86-20.8 121.22-22.29 120.57-23.78 120.57-25.71L120.57-25.71Q120.57-30.13 123.95-32.52 127.33-34.91 133.63-34.91L133.63-34.91Q139.49-34.91 142.59-33.12 145.69-31.32 146.94-27L146.94-27 142.35-26.2Q141.59-28.93 139.47-30.16 137.34-31.4 133.58-31.4L133.58-31.4Q129.46-31.4 127.28-30.03 125.11-28.66 125.11-25.95L125.11-25.95Q125.11-24.37 125.95-23.33 126.79-22.29 128.38-21.58L128.38-21.58Q129.87-20.87 134.7-19.8L134.7-19.8Q136.68-19.34 138.61-18.84 140.54-18.33 142.25-17.58L142.25-17.58Q143.25-17.16 144.16-16.56 145.08-15.97 145.76-15.19L145.76-15.19Q146.69-14.16 147.22-12.77 147.74-11.38 147.74-9.5ZM175.74-13.33L175.74-13.33Q175.74-6.42 173.31-2.97 170.88 0.49 166.03 0.49L166.03 0.49Q159.92 0.49 157.82-4.1L157.82-4.1 157.7-4.1Q157.8-3.93 157.8 0.05L157.8 0.05 157.8 10.38 153.4 10.38 153.4-21.02Q153.4-23.05 153.37-24.4 153.33-25.76 153.26-26.42L153.26-26.42 157.5-26.42Q157.53-26.32 157.59-25.46 157.65-24.61 157.7-23.62 157.75-22.63 157.75-22.17L157.75-22.17 157.85-22.17Q159.02-24.61 160.95-25.74 162.88-26.88 166.03-26.88L166.03-26.88Q170.91-26.88 173.32-23.61 175.74-20.34 175.74-13.33ZM171.13-13.23L171.13-13.23Q171.13-18.75 169.64-21.12 168.15-23.49 164.9-23.49L164.9-23.49Q161.29-23.49 159.54-20.98 157.8-18.48 157.8-12.89L157.8-12.89Q157.8-7.69 159.46-5.22 161.12-2.76 164.85-2.76L164.85-2.76Q168.12-2.76 169.63-5.16 171.13-7.57 171.13-13.23ZM185.5-21.9L185.58-21.9Q186.99-24.49 188.98-25.7 190.97-26.9 194.03-26.9L194.03-26.9Q198.32-26.9 200.36-24.67 202.4-22.44 202.4-17.6L202.4-17.6 202.4 0 197.98 0 197.98-16.75Q197.98-20.34 196.72-21.92 195.47-23.51 192.54-23.51L192.54-23.51Q189.44-23.51 187.57-21.36 185.7-19.21 185.7-15.58L185.7-15.58 185.7 0 181.31 0 181.31-36.23 185.7-36.23 185.7-26.81Q185.7-25.83 185.65-24.74 185.6-23.66 185.57-22.86 185.53-22.07 185.5-21.9L185.5-21.9ZM231.23-12.28L212.38-12.28Q212.38-7.74 214.26-5.27 216.14-2.81 219.76-2.81L219.76-2.81Q222.61-2.81 224.33-3.96 226.05-5.1 226.66-6.86L226.66-6.86 230.52-5.76Q228.15 0.49 219.76 0.49L219.76 0.49Q213.9 0.49 210.83-3 207.77-6.49 207.77-13.38L207.77-13.38Q207.77-19.92 210.83-23.41 213.9-26.9 219.58-26.9L219.58-26.9Q225.42-26.9 228.32-23.39 231.23-19.87 231.23-12.87L231.23-12.87 231.23-12.28ZM212.43-15.65L226.69-15.65Q226.32-19.82 224.56-21.74 222.81-23.66 219.51-23.66L219.51-23.66Q216.31-23.66 214.45-21.52 212.58-19.38 212.43-15.65L212.43-15.65ZM241.31-13.77L241.31-13.77 241.31 0 236.92 0 236.92-20.26Q236.92-21.66 236.88-23.19 236.84-24.73 236.77-26.42L236.77-26.42 240.92-26.42Q240.97-25.29 241.01-24.39 241.04-23.49 241.07-22.81 241.09-22.14 241.1-21.69 241.12-21.24 241.12-21.02L241.12-21.02 241.21-21.02Q241.95-23.41 242.82-24.73L242.82-24.73Q243.68-25.95 244.78-26.43 245.88-26.9 247.49-26.9L247.49-26.9Q248.39-26.9 249.27-26.66L249.27-26.66 249.27-22.63Q248.44-22.88 246.93-22.88L246.93-22.88Q244.19-22.88 242.75-20.52 241.31-18.16 241.31-13.77ZM275.68-12.28L256.84-12.28Q256.84-7.74 258.72-5.27 260.6-2.81 264.21-2.81L264.21-2.81Q267.06-2.81 268.79-3.96 270.51-5.1 271.12-6.86L271.12-6.86 274.98-5.76Q272.61 0.49 264.21 0.49L264.21 0.49Q258.35 0.49 255.29-3 252.22-6.49 252.22-13.38L252.22-13.38Q252.22-19.92 255.29-23.41 258.35-26.9 264.04-26.9L264.04-26.9Q269.87-26.9 272.78-23.39 275.68-19.87 275.68-12.87L275.68-12.87 275.68-12.28ZM256.88-15.65L271.14-15.65Q270.78-19.82 269.02-21.74 267.26-23.66 263.96-23.66L263.96-23.66Q260.77-23.66 258.9-21.52 257.03-19.38 256.88-15.65L256.88-15.65Z" opacity="1" transform="matrix(1,0,0,1,0,0)" fill="black" class="wordmark-text-0" id="SvgjsPath1375"></path></svg></g></svg></g></svg></g></svg></g><g><svg viewBox="0 0 155.39890739072356 176.49239519999998" height="176.49239519999998" width="155.39890739072356"><g><svg xmlns="http://www.w3.org/2000/svg" xmlns:xlink="http://www.w3.org/1999/xlink" version="1.1" x="0" y="0" viewBox="4.6299986036262855 2.0003847563233697 38.741001428029655 43.99961524367663" enable-background="new 0 0 48 48" xml:space="preserve" height="176.49239519999998" width="155.39890739072356" class="icon-icon-0" data-fill-palette-color="accent" id="SvgjsSvg1374"><path d="M38.047 8.691V2.501A0.496 0.496 0 0 0 37.459 2.009 19.7 19.7 0 0 0 24 11.297C21.06 6.397 16.2 3.03 10.54 2.009A0.5 0.5 0 0 0 9.95 2.5V8.705A16 16 0 0 0 4.845 11.032 0.5 0.5 0 0 0 4.63 11.443V44.638A0.5 0.5 0 0 0 5.415 45.05C10.979 41.199 18.489 41.541 23.679 45.882L23.696 45.892C23.705 45.9 23.713 45.909 23.722 45.914 23.736 45.923 23.753 45.925 23.768 45.933A0.4 0.4 0 0 0 23.88 45.979C23.891 45.982 23.901 45.99 23.912 45.992L24 46 24.074 45.995C24.104 45.991 24.133 45.974 24.162 45.965 24.183 45.958 24.203 45.954 24.222 45.944 24.229 45.941 24.237 45.941 24.243 45.937A0.5 0.5 0 0 0 24.325 45.88C29.514 41.542 37.022 41.199 42.585 45.048A0.5 0.5 0 0 0 43.371 44.638V11.443A0.5 0.5 0 0 0 43.156 11.032 16 16 0 0 0 38.047 8.691M10.95 3.108A18.71 18.71 0 0 1 23.499 12.431V43.701A19.7 19.7 0 0 0 10.95 35.283zM5.629 43.719V11.707A15 15 0 0 1 9.95 9.742V35.696A0.5 0.5 0 0 0 10.361 36.188 18.7 18.7 0 0 1 22.228 43.634C17.156 40.622 10.736 40.609 5.629 43.719M24.5 12.432A18.7 18.7 0 0 1 37.047 3.109V35.283A19.7 19.7 0 0 0 24.5 43.7zM42.369 43.719A16.07 16.07 0 0 0 34.006 41.381C31.141 41.381 28.28 42.141 25.756 43.643A18.7 18.7 0 0 1 37.637 36.189 0.5 0.5 0 0 0 38.047 35.697V9.726A15.1 15.1 0 0 1 42.369 11.707z" fill="black"></path><path d="M13.642 13.76A18.7 18.7 0 0 1 20.279 18.023 0.5 0.5 0 1 0 20.984 17.316 19.7 19.7 0 0 0 13.993 12.826 0.498 0.498 0 1 0 13.642 13.76" fill="black"></path><path d="M13.642 20.495A18.7 18.7 0 0 1 20.279 24.757 0.496 0.496 0 0 0 20.986 24.756 0.5 0.5 0 0 0 20.984 24.049 19.7 19.7 0 0 0 13.993 19.559 0.5 0.5 0 1 0 13.642 20.495" fill="black"></path><path d="M20.983 30.783A19.7 19.7 0 0 0 13.992 26.293 0.5 0.5 0 1 0 13.64 27.23 18.7 18.7 0 0 1 20.277 31.493 0.496 0.496 0 0 0 20.984 31.492 0.5 0.5 0 0 0 20.983 30.783" fill="black"></path><path d="M27.366 18.168A0.5 0.5 0 0 0 27.719 18.022 18.7 18.7 0 0 1 34.356 13.759C34.616 13.662 34.747 13.373 34.649 13.115S34.26 12.726 34.004 12.823A19.7 19.7 0 0 0 27.014 17.313 0.5 0.5 0 0 0 27.366 18.168" fill="black"></path><path d="M27.366 24.903A0.5 0.5 0 0 0 27.719 24.757 18.7 18.7 0 0 1 34.356 20.495 0.5 0.5 0 1 0 34.004 19.558 19.7 19.7 0 0 0 27.014 24.048 0.5 0.5 0 0 0 27.366 24.903" fill="black"></path><path d="M27.366 31.637A0.5 0.5 0 0 0 27.719 31.491 18.8 18.8 0 0 1 30.811 29.008 0.5 0.5 0 1 0 30.272 28.167 20 20 0 0 0 27.014 30.783 0.501 0.501 0 0 0 27.366 31.637" fill="black"></path></svg></g></svg></g></svg></g><defs><mask></mask></defs></svg><rect width="395.52" height="123.15118105138005" fill="black" stroke="none" visibility="hidden"></rect></g></mask></svg><rect width="395.52" height="123.15118105138005" fill="black" stroke="none" visibility="hidden"></rect></g></mask><linearGradient x1="0.054" x2="0.941" y1="0.5" y2="0.5" id="3654edc3-2f79-405f-9a68-1d9136db9ee6"><stop stop-color="#864d25" offset="0"></stop><stop stop-color="#f1c4b3" offset="0.498"></stop><stop stop-color="#864d25" offset="1"></stop></linearGradient><rect width="395.52" height="123.15118105138005" fill="#000000" mask="url(#3fd9452b-f971-4f53-b559-4447493139a2)" data-fill-palette-color="accent"></rect></svg><rect width="395.52" height="123.15118105138005" fill="none" stroke="none" visibility="hidden"></rect></g></svg></g></svg>